<?xml version="1.0" standalone="no"?>
<!DOCTYPE svg PUBLIC "-//W3C//DTD SVG 20010904//EN"
 "http://www.w3.org/TR/2001/REC-SVG-20010904/DTD/svg10.dtd">
<svg version="1.0" xmlns="http://www.w3.org/2000/svg"
 width="512.000000pt" height="512.000000pt" viewBox="0 0 512.000000 512.000000"
 preserveAspectRatio="xMidYMid meet">
<metadata>
Created by potrace 1.14, written by Peter Selinger 2001-2017
</metadata>
<g transform="translate(0.000000,512.000000) scale(0.100000,-0.100000)"
fill="#000000" stroke="none">
<path d="M2379 5116 c-2 -2 -40 -6 -83 -10 -44 -4 -82 -9 -85 -11 -4 -2 -34
-7 -66 -10 -117 -14 -472 -111 -499 -136 -6 -5 -16 -9 -23 -9 -31 0 -285 -127
-413 -206 -347 -214 -657 -532 -864 -888 -81 -138 -198 -402 -221 -496 -2 -8
-15 -52 -29 -97 -13 -45 -27 -98 -30 -119 -4 -20 -8 -39 -10 -43 -3 -4 -7 -25
-9 -46 -3 -22 -8 -47 -10 -55 -6 -16 -13 -66 -24 -170 -10 -85 -10 -415 -1
-510 21 -221 84 -479 168 -690 38 -96 127 -283 158 -332 9 -15 34 -56 56 -92
42 -71 154 -223 226 -306 261 -305 615 -557 996 -708 93 -37 235 -85 286 -97
141 -31 210 -46 248 -51 25 -3 54 -8 65 -10 56 -12 169 -18 340 -19 226 0 310
8 505 46 58 11 115 23 128 25 47 9 320 103 387 134 391 177 676 391 957 718
244 282 472 758 533 1111 3 19 7 37 9 40 3 5 9 42 22 131 20 146 26 455 12
600 -47 469 -224 922 -507 1295 -25 33 -50 65 -56 71 -5 6 -30 35 -55 65 -240
285 -590 533 -985 699 -145 61 -419 133 -595 156 -25 3 -56 8 -70 10 -28 6
-456 15 -461 10z"/>
</g>
</svg>
